<svg xmlns="http://www.w3.org/2000/svg" xmlns:xlink="http://www.w3.org/1999/xlink" width="20" height="20" viewBox="0 0 20 20">
    <defs>
        <path id="prefix__a" d="M8.82 0C9.473 0 10 .528 10 1.18v.864c0 .19.115.362.29.434.176.073.379.032.513-.102l.609-.612c.458-.46 1.202-.462 1.661-.004l1.177 1.176c.454.454.454 1.19.002 1.644l-.595.597c-.137.137-.181.342-.113.524.067.18.238.299.43.299h.853C15.475 6 16 6.525 16 7.173v1.654C16 9.475 15.475 10 14.827 10h-.861c-.187 0-.355.115-.422.29-.068.177-.026.377.106.512l.602.61c.453.46.45 1.2-.006 1.656l-1.176 1.175c-.457.458-1.199.46-1.658.004l-.608-.603c-.135-.134-.338-.174-.514-.101-.175.073-.29.245-.29.436v.853C10 15.477 9.477 16 8.832 16H7.168C6.523 16 6 15.477 6 14.832v-.858c0-.188-.113-.358-.286-.431-.173-.073-.373-.035-.506.097l-.615.607c-.462.456-1.206.453-1.666-.006l-1.164-1.165c-.46-.459-.46-1.203 0-1.662l.002-.003.613-.608c.135-.135.175-.338.1-.513-.076-.176-.249-.29-.44-.29h-.861C.527 10 0 9.473 0 8.823V7.177C0 6.527.527 6 1.177 6h.853c.196 0 .372-.118.448-.299.075-.18.033-.388-.107-.525l-.606-.596c-.458-.45-.464-1.187-.013-1.645l.007-.007 1.163-1.164c.462-.461 1.21-.461 1.671 0l.616.615c.133.133.333.172.505.1.173-.073.286-.243.286-.43v-.87C6 .528 6.528 0 7.18 0h1.64zm0 1H7.18c-.1 0-.18.08-.18.18v.869c0 .59-.354 1.123-.898 1.351-.548.23-1.18.106-1.6-.313l-.616-.616c-.07-.07-.186-.07-.257 0L2.466 3.635h-.001c-.064.065-.063.169.002.232l.605.596c.43.423.56 1.065.329 1.622C3.171 6.64 2.63 7 2.03 7h-.853C1.079 7 1 7.08 1 7.177v1.646c0 .098.08.177.177.177h.86c.592 0 1.127.353 1.36.896.236.552.112 1.193-.314 1.616l-.613.609c-.069.069-.069.18 0 .248l1.164 1.165c.071.07.186.07.257 0l.615-.606c.421-.416 1.052-.537 1.598-.306.543.23.896.762.896 1.352v.858c0 .093.075.168.168.168h1.664c.093 0 .168-.075.168-.168v-.853c0-.595.358-1.13.906-1.36.549-.228 1.18-.104 1.603.315l.607.603c.069.068.179.067.247 0l1.176-1.176c.068-.068.068-.179 0-.248l-.6-.61c-.409-.414-.537-1.028-.329-1.571.216-.562.755-.932 1.356-.932h.861c.096 0 .173-.077.173-.173V7.173c0-.096-.077-.173-.173-.173h-.853c-.61 0-1.155-.378-1.367-.95-.205-.547-.071-1.164.342-1.579l.594-.597c.064-.064.064-.167 0-.23l-1.175-1.175c-.068-.069-.18-.068-.247 0l-.61.612c-.42.422-1.052.549-1.602.322C9.359 3.175 9 2.639 9 2.044V1.18C9 1.08 8.92 1 8.82 1zM8 5c1.657 0 3 1.343 3 3s-1.343 3-3 3-3-1.343-3-3 1.343-3 3-3zm0 1c-1.105 0-2 .895-2 2s.895 2 2 2 2-.895 2-2-.895-2-2-2z"/>
    </defs>
    <g fill="none" fill-rule="evenodd">
        <path d="M0 0H20V20H0z"/>
        <g transform="translate(2 2)">
            <mask id="prefix__b" fill="#fff">
                <use xlink:href="#prefix__a"/>
            </mask>
            <use fill="#0055A5" fill-rule="nonzero" xlink:href="#prefix__a"/>
            <g fill="#8A95A0" mask="url(#prefix__b)">
                <path d="M0 0H16V16H0z"/>
            </g>
        </g>
    </g>
</svg>
